<mxGraphModel><root><mxCell id="0"/><mxCell id="1" parent="0"/><mxCell id="2" value="Train Details" style="whiteSpace=wrap;strokeWidth=2;" vertex="1" parent="1"><mxGeometry x="8" y="469" width="653" height="198" as="geometry"/></mxCell><mxCell id="3" value="Flight Details" style="whiteSpace=wrap;strokeWidth=2;" vertex="1" parent="1"><mxGeometry x="681" y="469" width="658" height="198" as="geometry"/></mxCell><mxCell id="4" value="Start" style="whiteSpace=wrap;strokeWidth=2;" vertex="1" parent="1"><mxGeometry x="628" y="8" width="96" height="49" as="geometry"/></mxCell><mxCell id="5" value="Travel Plan" style="rhombus;strokeWidth=2;whiteSpace=wrap;" vertex="1" parent="1"><mxGeometry x="611" y="107" width="129" height="129" as="geometry"/></mxCell><mxCell id="6" value="Flight Details" style="ellipse;aspect=fixed;strokeWidth=2;whiteSpace=wrap;" vertex="1" parent="1"><mxGeometry x="958" y="309" width="110" height="110" as="geometry"/></mxCell><mxCell id="7" value="Train Details" style="ellipse;aspect=fixed;strokeWidth=2;whiteSpace=wrap;" vertex="1" parent="1"><mxGeometry x="286" y="311" width="106" height="106" as="geometry"/></mxCell><mxCell id="8" value="Destination" style="whiteSpace=wrap;strokeWidth=2;" vertex="1" parent="1"><mxGeometry x="942" y="494" width="142" height="49" as="geometry"/></mxCell><mxCell id="9" value="Destination" style="whiteSpace=wrap;strokeWidth=2;" vertex="1" parent="1"><mxGeometry x="269" y="494" width="142" height="49" as="geometry"/></mxCell><mxCell id="10" value="Departure Time" style="whiteSpace=wrap;strokeWidth=2;" vertex="1" parent="1"><mxGeometry x="716" y="593" width="172" height="49" as="geometry"/></mxCell><mxCell id="11" value="Arrival Time" style="whiteSpace=wrap;strokeWidth=2;" vertex="1" parent="1"><mxGeometry x="939" y="593" width="148" height="49" as="geometry"/></mxCell><mxCell id="12" value="Flight Duration" style="whiteSpace=wrap;strokeWidth=2;" vertex="1" parent="1"><mxGeometry x="1137" y="593" width="167" height="49" as="geometry"/></mxCell><mxCell id="13" value="Departure Time" style="whiteSpace=wrap;strokeWidth=2;" vertex="1" parent="1"><mxGeometry x="43" y="593" width="172" height="49" as="geometry"/></mxCell><mxCell id="14" value="Arrival Time" style="whiteSpace=wrap;strokeWidth=2;" vertex="1" parent="1"><mxGeometry x="265" y="593" width="148" height="49" as="geometry"/></mxCell><mxCell id="15" value="Train Duration" style="whiteSpace=wrap;strokeWidth=2;" vertex="1" parent="1"><mxGeometry x="464" y="593" width="163" height="49" as="geometry"/></mxCell><mxCell id="16" value="" style="curved=1;startArrow=none;endArrow=block;exitX=0.5;exitY=1;entryX=0.5;entryY=0;" edge="1" parent="1" source="4" target="5"><mxGeometry relative="1" as="geometry"><Array as="points"/></mxGeometry></mxCell><mxCell id="17" value="Yes" style="curved=1;startArrow=none;endArrow=block;exitX=1.01;exitY=0.65;entryX=0.5;entryY=0;" edge="1" parent="1" source="5" target="6"><mxGeometry relative="1" as="geometry"><Array as="points"><mxPoint x="1013" y="273"/></Array></mxGeometry></mxCell><mxCell id="18" value="No" style="curved=1;startArrow=none;endArrow=block;exitX=0;exitY=0.65;entryX=0.5;entryY=0;" edge="1" parent="1" source="5" target="7"><mxGeometry relative="1" as="geometry"><Array as="points"><mxPoint x="339" y="273"/></Array></mxGeometry></mxCell><mxCell id="19" value="" style="curved=1;startArrow=none;endArrow=block;exitX=0.5;exitY=1;entryX=0.5;entryY=0.01;" edge="1" parent="1" source="6" target="8"><mxGeometry relative="1" as="geometry"><Array as="points"/></mxGeometry></mxCell><mxCell id="20" value="" style="curved=1;startArrow=none;endArrow=block;exitX=0.5;exitY=1;entryX=0.5;entryY=0.01;" edge="1" parent="1" source="7" target="9"><mxGeometry relative="1" as="geometry"><Array as="points"/></mxGeometry></mxCell><mxCell id="21" value="" style="curved=1;startArrow=none;endArrow=block;exitX=0;exitY=0.85;entryX=0.5;entryY=0.01;" edge="1" parent="1" source="8" target="10"><mxGeometry relative="1" as="geometry"><Array as="points"><mxPoint x="803" y="568"/></Array></mxGeometry></mxCell><mxCell id="22" value="" style="curved=1;startArrow=none;endArrow=block;exitX=0.5;exitY=1.01;entryX=0.5;entryY=0.01;" edge="1" parent="1" source="8" target="11"><mxGeometry relative="1" as="geometry"><Array as="points"/></mxGeometry></mxCell><mxCell id="23" value="" style="curved=1;startArrow=none;endArrow=block;exitX=1;exitY=0.85;entryX=0.5;entryY=0.01;" edge="1" parent="1" source="8" target="12"><mxGeometry relative="1" as="geometry"><Array as="points"><mxPoint x="1221" y="568"/></Array></mxGeometry></mxCell><mxCell id="24" value="" style="curved=1;startArrow=none;endArrow=block;exitX=0;exitY=0.85;entryX=0.5;entryY=0.01;" edge="1" parent="1" source="9" target="13"><mxGeometry relative="1" as="geometry"><Array as="points"><mxPoint x="129" y="568"/></Array></mxGeometry></mxCell><mxCell id="25" value="" style="curved=1;startArrow=none;endArrow=block;exitX=0.5;exitY=1.01;entryX=0.5;entryY=0.01;" edge="1" parent="1" source="9" target="14"><mxGeometry relative="1" as="geometry"><Array as="points"/></mxGeometry></mxCell><mxCell id="26" value="" style="curved=1;startArrow=none;endArrow=block;exitX=0.99;exitY=0.86;entryX=0.5;entryY=0.01;" edge="1" parent="1" source="9" target="15"><mxGeometry relative="1" as="geometry"><Array as="points"><mxPoint x="545" y="568"/></Array></mxGeometry></mxCell></root></mxGraphModel>